<svg xmlns="http://www.w3.org/2000/svg" version="1.1" xmlns:xlink="http://www.w3.org/1999/xlink" xmlns:svgjs="http://svgjs.dev/svgjs" width="1000" height="1000" viewBox="0 0 1000 1000"><rect width="1000" height="1000" fill="#471aa0"></rect><g transform="matrix(0.7,0,0,0.7,150,218.95000000000005)"><svg viewBox="0 0 448 360" data-background-color="#471aa0" preserveAspectRatio="xMidYMid meet" height="803" width="1000" xmlns="http://www.w3.org/2000/svg" xmlns:xlink="http://www.w3.org/1999/xlink"><g id="tight-bounds" transform="matrix(1,0,0,1,0,0)"><svg viewBox="0 0 448 360" height="360" width="448"><g><svg></svg></g><g><svg viewBox="0 0 448 360" height="360" width="448"><g><path d="M193.855 44.683c1.378 0 2.494 1.116 2.495 2.494 0 1.378-1.116 2.494-2.495 2.495h-23.846l-17.167 17.167c-0.973 0.973-2.551 0.973-3.53 0-0.973-0.973-0.973-2.551 0-3.529l13.644-13.645h-40.378c-11.518 0-19.151 2.688-23.815 8.113-4.739 5.519-6.66 14.056-6.66 25.63 0 0.069 0 0.137-0.006 0.206l0.212 36.692 14.692-14.692c0.973-0.973 2.551-0.973 3.53 0 0.973 0.973 0.973 2.551 0 3.53l-18.178 18.178c0.206 35.832 0.193 71.358-0.013 107.19 25.486 25.2 50.617 50.312 75.811 75.791h25.38c1.378 0 2.494 1.116 2.495 2.495 0 1.378-1.116 2.494-2.495 2.494h-20.448l25.942 26.241 0.006-0.006c8.188 8.188 15.577 12.859 22.824 13.413 7.146 0.543 14.442-2.956 22.586-11.093l28.555-28.555h-20.722c-1.378 0-2.494-1.116-2.495-2.494 0-1.378 1.116-2.494 2.495-2.495h25.711l16.625-16.625c0.973-0.973 2.551-0.973 3.529 0 0.973 0.973 0.973 2.551 0 3.53l-13.101 13.102h40.377c11.518 0 19.151-2.688 23.815-8.113 4.739-5.519 6.66-14.056 6.66-25.63h0.013l-0.212-36.898-16.014 16.014c-0.973 0.973-2.551 0.973-3.53 0-0.973-0.973-0.973-2.551 0-3.53l19.5-19.5c-0.206-35.832-0.193-71.358 0.013-107.19-25.486-25.2-50.617-50.312-75.811-75.791h-26.147c-1.378 0-2.494-1.116-2.495-2.495 0-1.378 1.116-2.494 2.495-2.494h21.215l-25.824-26.123c-0.044-0.037-0.081-0.075-0.124-0.112-8.188-8.188-15.577-12.859-22.824-13.413-7.146-0.543-14.442 2.956-22.586 11.093l-28.555 28.555h18.858zM122.578 44.683h45.367l32.078-32.078c9.248-9.248 17.81-13.195 26.484-12.534 8.568 0.649 16.956 5.824 25.985 14.854 0.05 0.05 0.094 0.094 0.137 0.143l29.278 29.615h43.508c13.071 0 21.919 3.268 27.594 9.871 5.6 6.517 7.864 16.101 7.864 28.867 0 0.081-0.006 0.156-0.012 0.23l-0.225 39.742 28.43 28.112 0.006-0.006c9.03 9.03 14.206 17.411 14.854 25.985 0.661 8.674-3.293 17.236-12.534 26.484l-30.768 30.768 0.237 41.843h0.012c0 12.765-2.27 22.35-7.864 28.867-5.675 6.604-14.524 9.872-27.594 9.871h-45.366l-32.078 32.078c-9.248 9.248-17.81 13.195-26.484 12.534-8.568-0.649-16.956-5.824-25.985-14.854l0.006-0.006-29.421-29.758h-43.509c-13.071 0-21.919-3.268-27.594-9.872-5.6-6.517-7.864-16.101-7.863-28.866h0.012l0.231-39.972-28.293-27.969c-0.05-0.044-0.1-0.087-0.143-0.137-9.03-9.03-14.206-17.411-14.854-25.985-0.661-8.674 3.293-17.236 12.534-26.484l30.768-30.768-0.237-41.607c-0.006-0.075-0.012-0.156-0.012-0.23 0-12.765 2.27-22.35 7.864-28.867 5.675-6.604 14.524-9.872 27.594-9.871zM87.682 179.997l-0.274-47.724-27.276 27.276c-8.138 8.138-11.636 15.44-11.094 22.587 0.549 7.246 5.226 14.642 13.413 22.823 0.037 0.037 0.081 0.081 0.113 0.125l24.837 24.551 0.281-49.644zM92.303 241.483l-0.2 35.09h0.013c0 11.58 1.921 20.117 6.66 25.63 4.664 5.432 12.297 8.113 23.815 8.113h38.576l-33.55-33.936-35.308-34.903zM325.415 49.672h-38.575l33.549 33.936 35.308 34.902 0.2-34.884c-0.006-0.069-0.006-0.137-0.007-0.205 0-11.58-1.921-20.117-6.66-25.63-4.664-5.432-12.297-8.113-23.815-8.113zM360.599 130.352l-0.281 49.645 0.274 47.724 27.276-27.276c8.138-8.138 11.636-15.44 11.094-22.587-0.549-7.252-5.226-14.642-13.413-22.824l0.006-0.006-24.956-24.669z" fill="#ffffff" fill-rule="nonzero" stroke="none" stroke-width="1" stroke-linecap="butt" stroke-linejoin="miter" stroke-miterlimit="10" stroke-dasharray="" stroke-dashoffset="0" font-family="none" font-weight="none" font-size="none" text-anchor="none" style="mix-blend-mode: normal" data-fill-palette-color="tertiary"></path></g><g transform="matrix(1,0,0,1,112,150.46535677352637)"><svg viewBox="0 0 224 59.06928645294727" height="59.06928645294727" width="224"><g><svg viewBox="0 0 224 59.06928645294727" height="59.06928645294727" width="224"><g><svg viewBox="0 0 224 59.06928645294727" height="59.06928645294727" width="224"><g><svg viewBox="0 0 224 59.06928645294727" height="59.06928645294727" width="224"><g><svg viewBox="0 0 224 59.06928645294727" height="59.06928645294727" width="224"><g transform="matrix(1,0,0,1,0,0)"><svg width="224" viewBox="1.85 -39.05 193.43 51" height="59.06928645294727" data-palette-color="#ffffff"><g class="undefined-text-0" data-fill-palette-color="primary" id="text-0"><path d="M4.25 0L4.25 0Q3.25 0 2.55-0.7 1.85-1.4 1.85-2.4L1.85-2.4 1.85-36.65Q1.85-37.7 2.55-38.38 3.25-39.05 4.25-39.05L4.25-39.05 27.15-39.05Q28.2-39.05 28.85-38.43 29.5-37.8 29.5-36.8L29.5-36.8Q29.5-35.85 28.85-35.23 28.2-34.6 27.15-34.6L27.15-34.6 6.65-34.6 6.65-21.9 21.4-21.9Q22.45-21.9 23.1-21.28 23.75-20.65 23.75-19.65L23.75-19.65Q23.75-18.7 23.1-18.07 22.45-17.45 21.4-17.45L21.4-17.45 6.65-17.45 6.65-2.4Q6.65-1.4 5.95-0.7 5.25 0 4.25 0ZM42.35 0L42.05 0Q39.9 0 38.25-1.18 36.6-2.35 35.67-4.38 34.75-6.4 34.75-9.05L34.75-9.05 34.75-36.75Q34.75-37.8 35.37-38.43 36-39.05 37.05-39.05L37.05-39.05Q38.1-39.05 38.72-38.43 39.35-37.8 39.35-36.75L39.35-36.75 39.35-9.05Q39.35-7.1 40.1-5.85 40.85-4.6 42.05-4.6L42.05-4.6 43.3-4.6Q44.25-4.6 44.8-3.98 45.35-3.35 45.35-2.3L45.35-2.3Q45.35-1.25 44.5-0.63 43.65 0 42.35 0L42.35 0ZM62.09 0.25L62.09 0.25Q58.59 0.25 55.84-1.23 53.09-2.7 51.5-5.55 49.9-8.4 49.9-12.5L49.9-12.5 49.9-25.05Q49.9-26.05 50.57-26.73 51.25-27.4 52.25-27.4L52.25-27.4Q53.25-27.4 53.92-26.73 54.59-26.05 54.59-25.05L54.59-25.05 54.59-12.5Q54.59-9.6 55.7-7.73 56.8-5.85 58.67-4.93 60.55-4 62.89-4L62.89-4Q65.15-4 66.92-4.9 68.69-5.8 69.75-7.3 70.8-8.8 70.8-10.7L70.8-10.7 73.8-10.7Q73.75-7.6 72.19-5.1 70.65-2.6 68.02-1.18 65.4 0.25 62.09 0.25ZM73.09 0L73.09 0Q72.09 0 71.44-0.65 70.8-1.3 70.8-2.35L70.8-2.35 70.8-25.05Q70.8-26.1 71.44-26.75 72.09-27.4 73.09-27.4L73.09-27.4Q74.15-27.4 74.8-26.75 75.44-26.1 75.44-25.05L75.44-25.05 75.44-2.35Q75.44-1.3 74.8-0.65 74.15 0 73.09 0ZM87.54 0L87.54 0Q86.64 0 85.97-0.65 85.29-1.3 85.29-2.35L85.29-2.35 85.29-27.25Q85.29-30.8 86.64-33.45 87.99-36.1 90.47-37.58 92.94-39.05 96.34-39.05L96.34-39.05Q97.34-39.05 98.02-38.45 98.69-37.85 98.69-36.95L98.69-36.95Q98.69-36.05 98.02-35.43 97.34-34.8 96.34-34.8L96.34-34.8Q94.34-34.8 92.92-33.9 91.49-33 90.74-31.4 89.99-29.8 89.99-27.65L89.99-27.65 89.99-2.35Q89.99-1.3 89.34-0.65 88.69 0 87.54 0ZM95.39-22.35L82.79-22.35Q81.84-22.35 81.24-22.93 80.64-23.5 80.64-24.3L80.64-24.3Q80.64-25.25 81.24-25.8 81.84-26.35 82.79-26.35L82.79-26.35 95.39-26.35Q96.34-26.35 96.94-25.8 97.54-25.25 97.54-24.3L97.54-24.3Q97.54-23.5 96.94-22.93 96.34-22.35 95.39-22.35L95.39-22.35ZM105.89 0L105.89 0Q104.99 0 104.31-0.65 103.64-1.3 103.64-2.35L103.64-2.35 103.64-27.25Q103.64-30.8 104.99-33.45 106.34-36.1 108.81-37.58 111.29-39.05 114.69-39.05L114.69-39.05Q115.69-39.05 116.36-38.45 117.04-37.85 117.04-36.95L117.04-36.95Q117.04-36.05 116.36-35.43 115.69-34.8 114.69-34.8L114.69-34.8Q112.69-34.8 111.26-33.9 109.84-33 109.09-31.4 108.34-29.8 108.34-27.65L108.34-27.65 108.34-2.35Q108.34-1.3 107.69-0.65 107.04 0 105.89 0ZM113.74-22.35L101.14-22.35Q100.19-22.35 99.59-22.93 98.99-23.5 98.99-24.3L98.99-24.3Q98.99-25.25 99.59-25.8 100.19-26.35 101.14-26.35L101.14-26.35 113.74-26.35Q114.69-26.35 115.29-25.8 115.89-25.25 115.89-24.3L115.89-24.3Q115.89-23.5 115.29-22.93 114.69-22.35 113.74-22.35L113.74-22.35ZM125.99 11.95L125.99 11.95Q125.49 11.95 124.89 11.7L124.89 11.7Q122.84 10.8 123.74 8.8L123.74 8.8 139.29-26.05Q140.24-27.95 142.19-27.15L142.19-27.15Q144.29-26.25 143.34-24.25L143.34-24.25 127.74 10.55Q127.19 11.95 125.99 11.95ZM131.74-1L131.74-1Q130.89-0.65 130.11-0.93 129.34-1.2 128.89-2.1L128.89-2.1 117.54-24.3Q117.09-25.2 117.41-26 117.74-26.8 118.64-27.15L118.64-27.15Q119.49-27.55 120.29-27.25 121.09-26.95 121.49-26.1L121.49-26.1 132.44-3.9Q132.89-3 132.76-2.2 132.64-1.4 131.74-1ZM164.83 0.8L164.83 0.8Q160.13 0.8 156.48-0.98 152.83-2.75 150.78-5.88 148.73-9 148.73-13.05L148.73-13.05 148.73-36.65Q148.73-37.7 149.41-38.38 150.08-39.05 151.13-39.05L151.13-39.05Q152.18-39.05 152.83-38.38 153.48-37.7 153.48-36.65L153.48-36.65 153.48-13.05Q153.48-10.25 154.93-8.13 156.38-6 158.96-4.78 161.53-3.55 164.83-3.55L164.83-3.55Q168.03-3.55 170.51-4.78 172.98-6 174.41-8.13 175.83-10.25 175.83-13.05L175.83-13.05 175.83-36.65Q175.83-37.7 176.51-38.38 177.19-39.05 178.19-39.05L178.19-39.05Q179.28-39.05 179.91-38.38 180.53-37.7 180.53-36.65L180.53-36.65 180.53-13.05Q180.53-9 178.53-5.88 176.53-2.75 172.98-0.98 169.44 0.8 164.83 0.8ZM192.93 0L192.93 0Q191.88 0 191.21-0.68 190.53-1.35 190.53-2.4L190.53-2.4 190.53-36.65Q190.53-37.7 191.21-38.38 191.88-39.05 192.93-39.05L192.93-39.05Q193.98-39.05 194.63-38.38 195.28-37.7 195.28-36.65L195.28-36.65 195.28-2.4Q195.28-1.35 194.63-0.68 193.98 0 192.93 0Z" fill="#ffffff" data-fill-palette-color="primary"></path></g></svg></g></svg></g></svg></g></svg></g></svg></g></svg></g></svg></g><defs></defs></svg><rect width="448" height="360" fill="none" stroke="none" visibility="hidden"></rect></g></svg></g></svg>